<svg width="54" height="54" viewBox="0 0 54 54" fill="none" xmlns="http://www.w3.org/2000/svg">
<path d="M27 54C41.9117 54 54 41.9117 54 27C54 12.0883 41.9117 0 27 0C12.0883 0 0 12.0883 0 27C0 41.9117 12.0883 54 27 54Z" fill="#2380FF"/>
<path fill-rule="evenodd" clip-rule="evenodd" d="M31.2094 33.7285C30.7598 34.014 30.1971 34.0551 29.7109 33.8379C28.747 33.3033 26.9893 32.0275 24.5512 29.5894C22.1131 27.1513 20.7239 25.2762 20.1853 24.3244C19.9681 23.8382 20.0092 23.2755 20.2946 22.8259L21.6959 20.3716C22.1981 19.5009 22.3115 18.9501 21.7648 18.1036L18.1643 12.5916C17.1397 10.9716 16.6172 11.0445 15.7343 11.4495C11.1416 13.5393 9.34749 16.4958 15.8639 26.7868C17.6216 29.5611 22.9919 35.4336 27.5725 38.4063C37.3816 44.7769 40.6094 42.8613 42.5251 38.4063C42.9301 37.5072 43.1083 36.9847 41.5652 35.9763L35.9924 32.4325C35.146 31.8898 34.7329 31.7481 33.8581 32.2543L31.2094 33.7285Z" fill="white"/>
</svg>
