<svg width="24" height="24" viewBox="0 0 24 24" fill="none" xmlns="http://www.w3.org/2000/svg">
<path fill-rule="evenodd" clip-rule="evenodd" d="M24 11.9885C24 18.624 18.624 24 11.989 24C5.376 24 0 18.624 0 11.9885C0 5.376 5.376 0 11.989 0C18.624 0 24 5.376 24 11.9885Z" fill="#2380FF"/>
<path d="M13.05 12L17.775 7.275C18.075 6.975 18.075 6.525 17.775 6.225C17.475 5.925 17.025 5.925 16.725 6.225L12 10.95L7.275 6.225C6.975 5.925 6.525 5.925 6.225 6.225C5.925 6.525 5.925 6.975 6.225 7.275L10.95 12L6.225 16.725C5.925 17.025 5.925 17.475 6.225 17.775C6.525 18.075 6.975 18.075 7.275 17.775L12 13.05L16.725 17.775C17.025 18.075 17.475 18.075 17.775 17.775C18.075 17.475 18.075 17.025 17.775 16.725L13.05 12Z" fill="white"/>
</svg>
