<svg width="14" height="14" viewBox="0 0 14 14" fill="none" xmlns="http://www.w3.org/2000/svg">
<path d="M7.07615 13.8966C3.27311 13.8966 0.179596 10.8031 0.179596 7.00007C0.179596 3.19703 3.27311 0.103516 7.07615 0.103516C10.8792 0.103516 13.9727 3.19703 13.9727 7.00007C13.9727 10.8031 10.8786 13.8966 7.07615 13.8966ZM7.07615 1.20696C3.88166 1.20696 1.28304 3.80558 1.28304 7.00007C1.28304 10.1946 3.88166 12.7932 7.07615 12.7932C10.2706 12.7932 12.8693 10.1946 12.8693 7.00007C12.8693 3.80558 10.2701 1.20696 7.07615 1.20696ZM7.03201 7.50765H3.48994C3.34361 7.50765 3.20328 7.44953 3.09981 7.34606C2.99634 7.24259 2.93822 7.10226 2.93822 6.95593C2.93822 6.8096 2.99634 6.66927 3.09981 6.5658C3.20328 6.46233 3.34361 6.40421 3.48994 6.40421H6.48029V2.31041C6.48029 2.16409 6.53841 2.02375 6.64188 1.92028C6.74535 1.81682 6.88568 1.75869 7.03201 1.75869C7.17834 1.75869 7.31867 1.81682 7.42214 1.92028C7.52561 2.02375 7.58373 2.16409 7.58373 2.31041V6.95593C7.58373 7.10226 7.52561 7.24259 7.42214 7.34606C7.31867 7.44953 7.17834 7.50765 7.03201 7.50765Z" fill="#2380FF"/>
</svg>
