<svg width="24" height="24" viewBox="0 0 24 24" fill="none" xmlns="http://www.w3.org/2000/svg">
<path fill-rule="evenodd" clip-rule="evenodd" d="M24 11.9885C24 18.624 18.624 24 11.989 24C5.376 24 0 18.624 0 11.9885C0 5.376 5.376 0 11.989 0C18.624 0 24 5.376 24 11.9885Z" fill="#2380FF"/>
<path d="M6.06201 10.2693H17.9447" stroke="white" stroke-linecap="round" stroke-linejoin="round"/>
<path d="M14.9614 12.8733H14.9674" stroke="white" stroke-width="1.3" stroke-linecap="round" stroke-linejoin="round"/>
<path d="M12.0034 12.8733H12.0094" stroke="white" stroke-width="1.3" stroke-linecap="round" stroke-linejoin="round"/>
<path d="M9.03857 12.8733H9.04457" stroke="white" stroke-width="1.3" stroke-linecap="round" stroke-linejoin="round"/>
<path d="M14.9614 15.4639H14.9674" stroke="white" stroke-width="1.3" stroke-linecap="round" stroke-linejoin="round"/>
<path d="M12.0034 15.4639H12.0094" stroke="white" stroke-width="1.3" stroke-linecap="round" stroke-linejoin="round"/>
<path d="M9.03857 15.4639H9.04457" stroke="white" stroke-width="1.3" stroke-linecap="round" stroke-linejoin="round"/>
<path d="M14.696 5.33325V7.52725" stroke="white" stroke-linecap="round" stroke-linejoin="round"/>
<path d="M9.31079 5.33325V7.52725" stroke="white" stroke-linecap="round" stroke-linejoin="round"/>
<path fill-rule="evenodd" clip-rule="evenodd" d="M14.8255 6.38599H9.18064C7.22285 6.38599 6 7.47661 6 9.48134V15.5144C6 17.5507 7.22285 18.6665 9.18064 18.6665H14.8193C16.7833 18.6665 18 17.5696 18 15.5649V9.48134C18.0062 7.47661 16.7895 6.38599 14.8255 6.38599Z" stroke="white" stroke-linecap="round" stroke-linejoin="round"/>
</svg>
