<svg width="20" height="20" viewBox="0 0 20 20" fill="none" xmlns="http://www.w3.org/2000/svg">
<path d="M10 20C15.5228 20 20 15.5228 20 10C20 4.47715 15.5228 0 10 0C4.47715 0 0 4.47715 0 10C0 15.5228 4.47715 20 10 20Z" fill="#2380FF"/>
<path d="M9.62744 5C11.6415 5 13.263 6.62156 13.263 8.63556C13.2624 8.67297 13.2658 8.71046 13.2732 8.74714C13.2421 10.1056 12.613 11.3633 11.7678 12.6424C11.0534 13.7234 10.2476 14.84 9.55039 16C8.88855 14.8449 8.12611 13.7305 7.44854 12.6525C6.62393 11.3406 6.00812 10.0499 6.00812 8.64367C6.00848 8.61105 6.00575 8.5784 6 8.54629C6.0482 6.57488 7.644 5 9.62744 5ZM9.62744 7.08152C8.77308 7.08152 8.06935 7.78526 8.06935 8.63962C8.06935 9.49397 8.77308 10.1977 9.62744 10.1977C10.4818 10.1977 11.1855 9.49397 11.1855 8.63962C11.1855 7.78526 10.4818 7.08152 9.62744 7.08152ZM9.62744 8.12025C9.92043 8.12025 10.1468 8.34669 10.1468 8.63962C10.1468 8.93264 9.92043 9.15898 9.62744 9.15898C9.33445 9.15898 9.10808 8.93264 9.10808 8.63962C9.10808 8.34669 9.33445 8.12025 9.62744 8.12025Z" fill="white"/>
</svg>
