<svg width="24" height="24" viewBox="0 0 24 24" fill="none" xmlns="http://www.w3.org/2000/svg">
<circle cx="12" cy="12" r="12" fill="#2380FF"/>
<path d="M16.2709 7.32603C16.2603 7.33638 16.2502 7.3474 16.2409 7.35903L11.0314 13.9965L7.89194 10.8555C7.67867 10.6568 7.39661 10.5486 7.10515 10.5538C6.8137 10.5589 6.53562 10.677 6.3295 10.8831C6.12339 11.0892 6.00532 11.3673 6.00018 11.6587C5.99503 11.9502 6.10322 12.2323 6.30194 12.4455L10.2709 16.416C10.3779 16.5228 10.5052 16.6069 10.6453 16.6633C10.7854 16.7198 10.9355 16.7474 11.0866 16.7446C11.2376 16.7418 11.3865 16.7086 11.5245 16.647C11.6624 16.5854 11.7865 16.4966 11.8894 16.386L17.8774 8.90103C18.0813 8.68702 18.1928 8.40137 18.1878 8.10583C18.1827 7.81029 18.0616 7.5286 17.8505 7.32167C17.6394 7.11474 17.3554 6.99919 17.0598 7C16.7642 7.00082 16.4809 7.11793 16.2709 7.32603Z" fill="white"/>
</svg>
