<svg width="54" height="54" viewBox="0 0 54 54" fill="none" xmlns="http://www.w3.org/2000/svg">
<path d="M27 54C41.9117 54 54 41.9117 54 27C54 12.0883 41.9117 0 27 0C12.0883 0 0 12.0883 0 27C0 41.9117 12.0883 54 27 54Z" fill="#D5D8DC"/>
<path d="M12.1499 32.0758V21.8914C12.1499 19.0834 13.6691 17.5498 16.5059 17.5498H28.9511C31.7735 17.5498 33.3071 19.0834 33.3071 21.8914V32.0758C33.3071 34.8838 31.7735 36.4174 28.9511 36.4174H16.5059C13.6835 36.4174 12.1499 34.8838 12.1499 32.0758ZM34.1495 23.9542L39.6215 19.4938C40.0028 19.1329 40.4981 18.9165 41.0219 18.8818C41.7671 18.8818 42.2711 19.4002 42.2711 20.3218V34.0018C42.2711 34.9342 41.7671 35.4418 41.0219 35.4418C40.4969 35.4121 40 35.1949 39.6215 34.8298L34.1495 30.3298V23.9542Z" fill="#FEFEFE"/>
</svg>
